<svg xmlns="http://www.w3.org/2000/svg" viewBox="0 0 1000 1000" role="img" aria-labelledby="title desc">
<title id="title">Epicormic growth after 21 shoots</title>
<desc id="desc">A deterministic branching organism reconstructed from the append-only growth ledger.</desc>
<rect width="1000" height="1000" fill="#f3efe3"/>
<g fill="none" stroke-linecap="round">
<path d="M500 970 L500 940" stroke="#593a22" stroke-width="12"/>
<path d="M500.000 940.000 L494.591 923.254" stroke="hsl(89 50% 51%)" stroke-width="8.067" data-shoot="1"/>
<path d="M500.000 940.000 L498.548 930.480" stroke="hsl(108 42% 32%)" stroke-width="7.603" data-shoot="2"/>
<path d="M494.591 923.254 L485.237 916.016" stroke="hsl(129 39% 53%)" stroke-width="7.427" data-shoot="3"/>
<path d="M498.548 930.480 L502.606 920.794" stroke="hsl(125 41% 32%)" stroke-width="7.235" data-shoot="4"/>
<path d="M502.606 920.794 L496.770 905.343" stroke="hsl(93 34% 43%)" stroke-width="7.253" data-shoot="5"/>
<path d="M494.591 923.254 L497.365 909.040" stroke="hsl(116 35% 60%)" stroke-width="8.012" data-shoot="6"/>
<path d="M485.237 916.016 L485.497 897.710" stroke="hsl(89 69% 37%)" stroke-width="7.213" data-shoot="7"/>
<path d="M496.770 905.343 L501.215 895.004" stroke="hsl(92 66% 60%)" stroke-width="7.141" data-shoot="8"/>
<path d="M497.365 909.040 L506.164 896.866" stroke="hsl(126 59% 38%)" stroke-width="8.073" data-shoot="9"/>
<path d="M501.215 895.004 L510.832 888.548" stroke="hsl(91 35% 42%)" stroke-width="6.879" data-shoot="10"/>
<path d="M485.497 897.710 L493.416 891.622" stroke="hsl(104 36% 49%)" stroke-width="7.124" data-shoot="11"/>
<path d="M500.000 940.000 L490.927 925.443" stroke="hsl(108 70% 51%)" stroke-width="7.399" data-shoot="12"/>
<path d="M485.237 916.016 L479.157 913.325" stroke="hsl(112 69% 34%)" stroke-width="7.149" data-shoot="13"/>
<path d="M490.927 925.443 L481.351 921.527" stroke="hsl(111 58% 32%)" stroke-width="6.945" data-shoot="14"/>
<path d="M498.548 930.480 L503.173 925.799" stroke="hsl(98 40% 48%)" stroke-width="6.990" data-shoot="15"/>
<path d="M496.770 905.343 L505.035 888.845" stroke="hsl(101 68% 48%)" stroke-width="6.979" data-shoot="16"/>
<path d="M493.416 891.622 L508.817 896.643" stroke="hsl(128 70% 39%)" stroke-width="6.561" data-shoot="17"/>
<path d="M479.157 913.325 L469.750 899.500" stroke="hsl(95 57% 50%)" stroke-width="7.139" data-shoot="18"/>
<path d="M505.035 888.845 L508.436 880.301" stroke="hsl(98 53% 41%)" stroke-width="6.832" data-shoot="19"/>
<path d="M501.215 895.004 L501.550 888.479" stroke="hsl(112 68% 42%)" stroke-width="6.773" data-shoot="20"/>
<path d="M485.237 916.016 L479.029 908.697" stroke="hsl(100 57% 53%)" stroke-width="6.945" data-shoot="21"/>
</g>
<text x="24" y="40" font-family="monospace" font-size="18" fill="#382a1e">shoots: 00021</text>
</svg>
